<?xml version="1.0" encoding="utf-8"?>
<!-- Generator: Adobe Illustrator 22.0.1, SVG Export Plug-In . SVG Version: 6.00 Build 0)  -->
<svg version="1.1" id="Layer_1" xmlns="http://www.w3.org/2000/svg" xmlns:xlink="http://www.w3.org/1999/xlink" x="0px" y="0px"
	 viewBox="0 0 354.5 446.2" style="enable-background:new 0 0 354.5 446.2;" xml:space="preserve">
<style type="text/css">
	.st0{fill:#E83A35;}
</style>
<g id="bL6BPi.tif">
	<g>
		<path class="st0" d="M175.4,448.1c-2.8-3.1-5.4-5.8-7.8-8.5c-37-41.3-72.1-84.1-103.7-129.8C46.1,284,29.5,257.5,16.5,229
			c-6.7-14.7-12.3-29.8-15.1-45.8c-1.8-10.5-1.6-20.9-0.5-31.4c3-28.8,12.8-55,29.8-78.4C56.3,37.9,90.7,15.2,133.3,5.2
			c43-10.1,84.7-5.5,124,14.7c44.3,22.8,74,58.1,87.6,106.3c4,14,5.7,28.3,5.5,42.9c-0.2,15.5-4.5,30.2-10,44.5
			c-10,26.1-23.8,50.1-38.8,73.5c-27,42.2-57.8,81.6-90.2,119.7c-11.3,13.3-23,26.2-34.5,39.3C176.4,446.7,176,447.3,175.4,448.1z
			 M170.4,238.1c24.4,0.1,43.5-6.3,59.4-18.4c30.4-23,41.6-63,26.1-97.7c-14.9-33.1-41.8-49.9-77.6-51.7c-26.2-1.3-48.8,8-67.3,26.7
			c-24.9,25.1-30.9,64.2-13.8,95.1C114,222.6,140.9,236.7,170.4,238.1z"/>
	</g>
</g>
</svg>
